<svg version="1.1" id="Layer_1" xmlns="http://www.w3.org/2000/svg" xmlns:xlink="http://www.w3.org/1999/xlink" x="0px" y="0px"
	 width="100%" viewBox="0 0 632 395" enable-background="new 0 0 632 395" xml:space="preserve">
<path fill="#000000" opacity="1.000000" stroke="none" 
	d="
M349.000000,396.000000 
	C232.694839,396.000000 116.889687,396.000000 1.042264,396.000000 
	C1.042264,264.393555 1.042264,132.787079 1.042264,1.090305 
	C211.555176,1.090305 422.110413,1.090305 632.832825,1.090305 
	C632.832825,132.666504 632.832825,264.333221 632.832825,396.000000 
	C538.453674,396.000000 443.976837,396.000000 349.000000,396.000000 
M178.399124,119.403214 
	C168.273346,119.280220 158.147568,119.157219 147.081909,119.016808 
	C133.925674,119.013672 120.766212,118.845657 107.615044,119.102280 
	C103.361626,119.185280 99.129959,120.382698 94.105209,121.441002 
	C94.072205,121.771835 94.010300,122.102661 94.010277,122.433495 
	C94.004013,196.121979 93.997803,269.810455 94.039307,343.498901 
	C94.039955,344.648682 94.629585,345.798126 95.685982,347.326599 
	C99.123238,347.547028 102.560486,347.767456 106.936592,347.996429 
	C116.574249,347.966858 126.211906,347.937286 136.585754,347.961090 
	C137.076736,347.960938 137.567719,347.960754 138.988968,347.989716 
	C151.186615,347.990936 163.384430,348.023560 175.581650,347.952148 
	C177.041565,347.943604 178.498154,347.369324 179.964676,346.112823 
	C179.964676,279.714752 179.964676,213.316696 179.964676,146.918625 
	C180.542419,146.846756 181.120178,146.774887 181.697922,146.703018 
	C183.380295,153.678833 184.860733,160.710815 186.782288,167.620117 
	C192.965363,189.852768 199.340652,212.031876 205.583359,234.248047 
	C209.450684,248.010834 213.189972,261.809509 217.033188,275.579132 
	C218.320984,280.193176 219.513718,284.860229 221.249100,289.308289 
	C221.848587,290.844849 223.961334,291.790985 225.382843,293.006805 
	C226.407501,291.701233 227.940445,290.544769 228.374359,289.065857 
	C231.197464,279.443756 233.881699,269.777588 236.402756,260.071625 
	C237.686493,255.129379 238.272888,250.001022 239.642105,245.087097 
	C241.894791,237.002350 244.527481,229.023483 247.592606,220.497192 
	C252.399307,202.930328 257.206024,185.363449 262.372253,166.482635 
	C266.273621,174.937958 269.849670,182.199188 273.006531,189.638290 
	C278.501648,202.587326 283.721710,215.652893 289.088593,228.656570 
	C292.910065,237.915741 296.710052,247.184906 300.655670,256.391327 
	C303.998138,264.190308 307.611572,271.873016 310.969482,279.665649 
	C316.283630,291.998169 321.577423,304.341217 326.697815,316.754913 
	C329.681824,323.989197 332.160339,331.432312 335.158966,338.660034 
	C336.867645,342.778534 338.663605,347.037109 341.339050,350.528564 
	C344.004059,354.006378 347.720001,356.202759 352.627533,353.320923 
	C355.801697,351.456970 359.337646,349.944489 362.906647,349.083466 
	C367.553314,347.962311 368.575165,345.185150 369.137299,340.865173 
	C369.978241,334.402649 365.959351,329.832672 363.972321,324.508118 
	C360.878326,316.216980 357.398438,308.065582 353.931305,299.919128 
	C350.015900,290.719360 345.821014,281.637756 341.963043,272.414642 
	C339.299194,266.046265 337.186890,259.446503 334.504333,253.086700 
	C326.707306,234.601517 318.768738,216.175858 310.844543,197.744553 
	C304.178436,182.239441 297.382324,166.789825 290.789368,151.253830 
	C287.831909,144.284622 285.505219,137.038589 282.358978,130.162170 
	C280.605042,126.328781 279.340118,121.370117 274.073090,120.669838 
	C268.154877,119.882996 262.172089,119.373184 256.205444,119.225128 
	C251.424393,119.106476 246.621918,119.993767 241.835144,119.934570 
	C230.213058,119.790840 218.594574,119.355774 206.043259,119.013725 
	C201.901901,119.007301 197.755371,118.869019 193.620621,119.031174 
	C189.408707,119.196358 185.208405,119.657143 180.332214,120.000626 
	C179.884964,119.996880 179.437729,119.993126 178.399124,119.403214 
M474.863831,279.384705 
	C473.874084,280.827637 472.884338,282.270538 471.903748,283.700134 
	C478.314056,288.443634 486.539246,288.183929 487.819885,282.737061 
	C488.758850,278.743500 491.398163,277.727539 493.765778,275.910126 
	C497.469818,273.066803 505.852295,275.910797 506.866272,280.464996 
	C508.290253,286.860565 509.304260,293.350525 510.384277,299.818420 
	C511.036652,303.725067 510.558716,306.254028 505.677277,303.502441 
	C504.566101,302.876129 502.747284,303.170929 501.342743,303.464905 
	C497.799164,304.206543 494.233856,304.978241 490.817108,306.146698 
	C488.386078,306.978119 485.883453,308.113647 483.928467,309.735168 
	C475.057587,317.092957 473.946564,326.711151 476.651367,337.175171 
	C478.522980,344.415741 482.650513,350.020996 490.299652,351.451477 
	C495.911835,352.501038 501.749420,352.345367 507.366272,352.718842 
	C506.094849,355.559814 506.860168,358.429016 510.897827,359.729340 
	C516.025818,361.380737 521.339844,359.715668 522.084839,355.588135 
	C524.339172,343.098938 526.348755,330.545685 527.791931,317.941589 
	C528.252808,313.916901 526.138916,309.659821 526.103088,305.501343 
	C526.047180,298.991699 525.697510,292.640594 523.323303,286.495911 
	C522.645264,284.741119 522.910095,282.474518 521.908142,281.015839 
	C514.325562,269.977142 504.652618,264.487640 490.549347,267.748627 
	C483.443481,269.391663 479.266602,273.641693 474.863831,279.384705 
M434.176178,276.905151 
	C431.866241,273.271057 427.408264,271.756195 422.988220,273.212128 
	C419.274658,274.435364 418.922485,277.351318 418.969269,280.781036 
	C419.115784,291.518280 418.885254,302.260956 419.054199,312.997528 
	C419.196594,322.048889 419.713196,331.093933 420.020477,340.143280 
	C420.118744,343.036224 419.854675,345.956573 420.147522,348.824463 
	C420.694763,354.183441 424.403931,354.255035 428.769257,354.209351 
	C433.790649,354.156830 436.545654,351.693787 435.804016,346.821869 
	C435.407288,344.215881 435.058777,341.573975 435.034210,338.945038 
	C434.941010,328.980774 434.874023,319.013458 435.027069,309.050812 
	C435.119904,303.008331 435.305634,296.929718 436.080139,290.949005 
	C436.565582,287.200653 439.157166,284.906372 443.388123,284.906769 
	C447.436157,284.907166 449.854218,286.973755 450.186462,290.696014 
	C450.509644,294.316315 450.253540,298.080261 449.612793,301.666992 
	C449.051819,304.807281 448.220490,307.300140 452.152832,308.993622 
	C456.920227,311.046753 463.611023,308.308533 464.943970,303.134155 
	C465.611847,300.541443 465.727051,297.806732 466.390106,295.212402 
	C467.941376,289.142670 459.587982,277.939362 453.902466,277.168854 
	C447.513550,276.303009 441.066833,273.769653 434.176178,276.905151 
M398.793091,291.082031 
	C398.858032,287.761169 398.510864,284.364441 399.104126,281.140808 
	C399.693970,277.935852 400.325500,274.620178 396.465271,273.973297 
	C393.044250,273.400085 389.318054,274.235992 385.810791,274.897003 
	C384.995667,275.050629 384.031982,276.993225 383.970612,278.156677 
	C383.526367,286.580109 383.391327,295.019623 382.965240,303.444275 
	C382.673584,309.210938 382.119019,314.966248 381.596191,320.718842 
	C380.785278,329.641968 379.739166,338.547028 379.110535,347.482147 
	C378.748962,352.621918 381.001343,354.171509 388.269623,354.537109 
	C392.123505,354.731018 393.637451,352.224182 393.898041,348.980164 
	C395.015717,335.066681 395.941742,321.137909 397.010712,307.220337 
	C397.402252,302.122620 397.996338,297.040527 398.793091,291.082031 
M399.850647,259.064484 
	C400.195282,255.166122 401.343750,251.091476 400.543945,247.444077 
	C400.146606,245.632050 396.139984,243.426010 393.824066,243.490128 
	C390.086853,243.593597 386.249481,245.439758 385.290222,249.845551 
	C384.396088,253.952362 385.241669,257.663879 388.829498,260.469818 
	C392.646820,263.455231 395.952820,261.674377 399.850647,259.064484 
z"/>
<path fill="#1B0A2B" opacity="1.000000" stroke="none" 
	d="
M105.997742,347.987915 
	C102.560486,347.767456 99.123238,347.547028 95.386200,346.891968 
	C95.124664,346.291382 95.162903,346.125366 95.456024,345.636902 
	C95.813469,344.161865 96.005737,343.009308 96.005714,341.856781 
	C96.004890,284.231110 95.987610,226.605453 95.987289,168.513367 
	C96.005455,156.954025 96.042358,145.860901 95.973122,134.768433 
	C95.963287,133.191986 95.437927,131.618790 95.072220,129.599548 
	C94.958298,126.460121 94.923317,123.765221 94.888344,121.070328 
	C99.129959,120.382698 103.361626,119.185280 107.615044,119.102280 
	C120.766212,118.845657 133.925674,119.013672 147.850998,119.310608 
	C158.743546,119.732727 168.867020,119.861046 178.990479,119.989380 
	C179.437729,119.993126 179.884964,119.996880 181.135803,119.999290 
	C185.746155,119.999069 189.557983,120.124252 193.358353,119.969292 
	C197.902222,119.784019 202.436310,119.359169 206.974640,119.038086 
	C218.594574,119.355774 230.213058,119.790840 241.835144,119.934570 
	C246.621918,119.993767 251.424393,119.106476 256.205444,119.225128 
	C262.172089,119.373184 268.154877,119.882996 274.073090,120.669838 
	C279.340118,121.370117 280.605042,126.328781 282.358978,130.162170 
	C285.505219,137.038589 287.831909,144.284622 290.789368,151.253830 
	C297.382324,166.789825 304.178436,182.239441 310.844543,197.744553 
	C318.768738,216.175858 326.707306,234.601517 334.504333,253.086700 
	C337.186890,259.446503 339.299194,266.046265 341.963043,272.414642 
	C345.821014,281.637756 350.015900,290.719360 353.931305,299.919128 
	C357.398438,308.065582 360.878326,316.216980 363.972321,324.508118 
	C365.959351,329.832672 369.978241,334.402649 369.137299,340.865173 
	C368.575165,345.185150 367.553314,347.962311 362.906647,349.083466 
	C359.337646,349.944489 355.801697,351.456970 352.627533,353.320923 
	C347.720001,356.202759 344.004059,354.006378 341.339050,350.528564 
	C338.663605,347.037109 336.867645,342.778534 335.158966,338.660034 
	C332.160339,331.432312 329.681824,323.989197 326.697815,316.754913 
	C321.577423,304.341217 316.283630,291.998169 310.969482,279.665649 
	C307.611572,271.873016 303.998138,264.190308 300.655670,256.391327 
	C296.710052,247.184906 292.910065,237.915741 289.088593,228.656570 
	C283.721710,215.652893 278.501648,202.587326 273.006531,189.638290 
	C269.849670,182.199188 266.273621,174.937958 262.372253,166.482635 
	C257.206024,185.363449 252.399307,202.930328 247.237976,220.615387 
	C246.799652,220.686462 246.715942,220.639328 246.632233,220.592194 
	C246.754822,220.728119 246.877411,220.864059 247.000000,221.000000 
	C244.527481,229.023483 241.894791,237.002350 239.642105,245.087097 
	C238.272888,250.001022 237.686493,255.129379 236.402756,260.071625 
	C233.881699,269.777588 231.197464,279.443756 228.374359,289.065857 
	C227.940445,290.544769 226.407501,291.701233 225.382843,293.006805 
	C223.961334,291.790985 221.848587,290.844849 221.249100,289.308289 
	C219.513718,284.860229 218.320984,280.193176 217.033188,275.579132 
	C213.189972,261.809509 209.450684,248.010834 205.583359,234.248047 
	C199.340652,212.031876 192.965363,189.852768 186.782288,167.620117 
	C184.860733,160.710815 183.380295,153.678833 181.697922,146.703018 
	C181.120178,146.774887 180.542419,146.846756 179.964676,146.918625 
	C179.964676,213.316696 179.964676,279.714752 179.495789,346.557129 
	C166.887100,347.005707 154.747086,346.976990 142.607758,347.055969 
	C141.089493,347.065826 139.574966,347.645142 138.058701,347.960602 
	C137.567719,347.960754 137.076736,347.960938 135.996613,347.579468 
	C127.605461,347.134644 119.802986,347.003113 112.001747,347.055298 
	C109.998428,347.068695 107.998970,347.661377 105.997742,347.987915 
z"/>
<path fill="#212121" opacity="1.000000" stroke="none" 
	d="
M475.009613,279.049011 
	C479.266602,273.641693 483.443481,269.391663 490.549347,267.748627 
	C504.652618,264.487640 514.325562,269.977142 521.908142,281.015839 
	C522.910095,282.474518 522.645264,284.741119 523.323303,286.495911 
	C525.697510,292.640594 526.047180,298.991699 526.103088,305.501343 
	C526.138916,309.659821 528.252808,313.916901 527.791931,317.941589 
	C526.348755,330.545685 524.339172,343.098938 522.084839,355.588135 
	C521.339844,359.715668 516.025818,361.380737 510.897827,359.729340 
	C506.860168,358.429016 506.094849,355.559814 507.366272,352.718842 
	C501.749420,352.345367 495.911835,352.501038 490.299652,351.451477 
	C482.650513,350.020996 478.522980,344.415741 476.651367,337.175171 
	C473.946564,326.711151 475.057587,317.092957 483.928467,309.735168 
	C485.883453,308.113647 488.386078,306.978119 490.817108,306.146698 
	C494.233856,304.978241 497.799164,304.206543 501.342743,303.464905 
	C502.747284,303.170929 504.566101,302.876129 505.677277,303.502441 
	C510.558716,306.254028 511.036652,303.725067 510.384277,299.818420 
	C509.304260,293.350525 508.290253,286.860565 506.866272,280.464996 
	C505.852295,275.910797 497.469818,273.066803 493.765778,275.910126 
	C491.398163,277.727539 488.758850,278.743500 487.819885,282.737061 
	C486.539246,288.183929 478.314056,288.443634 471.903748,283.700134 
	C472.884338,282.270538 473.874084,280.827637 475.009613,279.049011 
M509.344055,331.157837 
	C509.569611,327.757324 510.509583,324.202271 509.817047,321.000336 
	C509.143219,317.884796 507.419586,313.717041 504.995392,312.649933 
	C502.925995,311.739014 498.621979,313.897186 496.335632,315.882812 
	C490.658783,320.813080 489.674713,331.556610 493.159332,338.741516 
	C494.700104,341.918427 495.969330,344.545349 500.258759,344.073883 
	C504.633179,343.593048 506.459320,340.680511 507.784393,337.168884 
	C508.420654,335.482697 508.648346,333.642365 509.344055,331.157837 
z"/>
<path fill="#222222" opacity="1.000000" stroke="none" 
	d="
M434.442841,277.134430 
	C441.066833,273.769653 447.513550,276.303009 453.902466,277.168854 
	C459.587982,277.939362 467.941376,289.142670 466.390106,295.212402 
	C465.727051,297.806732 465.611847,300.541443 464.943970,303.134155 
	C463.611023,308.308533 456.920227,311.046753 452.152832,308.993622 
	C448.220490,307.300140 449.051819,304.807281 449.612793,301.666992 
	C450.253540,298.080261 450.509644,294.316315 450.186462,290.696014 
	C449.854218,286.973755 447.436157,284.907166 443.388123,284.906769 
	C439.157166,284.906372 436.565582,287.200653 436.080139,290.949005 
	C435.305634,296.929718 435.119904,303.008331 435.027069,309.050812 
	C434.874023,319.013458 434.941010,328.980774 435.034210,338.945038 
	C435.058777,341.573975 435.407288,344.215881 435.804016,346.821869 
	C436.545654,351.693787 433.790649,354.156830 428.769257,354.209351 
	C424.403931,354.255035 420.694763,354.183441 420.147522,348.824463 
	C419.854675,345.956573 420.118744,343.036224 420.020477,340.143280 
	C419.713196,331.093933 419.196594,322.048889 419.054199,312.997528 
	C418.885254,302.260956 419.115784,291.518280 418.969269,280.781036 
	C418.922485,277.351318 419.274658,274.435364 422.988220,273.212128 
	C427.408264,271.756195 431.866241,273.271057 434.442841,277.134430 
z"/>
<path fill="#222222" opacity="1.000000" stroke="none" 
	d="
M398.645569,291.516663 
	C397.996338,297.040527 397.402252,302.122620 397.010712,307.220337 
	C395.941742,321.137909 395.015717,335.066681 393.898041,348.980164 
	C393.637451,352.224182 392.123505,354.731018 388.269623,354.537109 
	C381.001343,354.171509 378.748962,352.621918 379.110535,347.482147 
	C379.739166,338.547028 380.785278,329.641968 381.596191,320.718842 
	C382.119019,314.966248 382.673584,309.210938 382.965240,303.444275 
	C383.391327,295.019623 383.526367,286.580109 383.970612,278.156677 
	C384.031982,276.993225 384.995667,275.050629 385.810791,274.897003 
	C389.318054,274.235992 393.044250,273.400085 396.465271,273.973297 
	C400.325500,274.620178 399.693970,277.935852 399.104126,281.140808 
	C398.510864,284.364441 398.858032,287.761169 398.645569,291.516663 
z"/>
<path fill="#1E1E1E" opacity="1.000000" stroke="none" 
	d="
M399.580688,259.366821 
	C395.952820,261.674377 392.646820,263.455231 388.829498,260.469818 
	C385.241669,257.663879 384.396088,253.952362 385.290222,249.845551 
	C386.249481,245.439758 390.086853,243.593597 393.824066,243.490128 
	C396.139984,243.426010 400.146606,245.632050 400.543945,247.444077 
	C401.343750,251.091476 400.195282,255.166122 399.580688,259.366821 
z"/>
<path fill="#FFFFFF" opacity="1.000000" stroke="none" 
	d="
M94.496780,121.255661 
	C94.923317,123.765221 94.958298,126.460121 95.001953,130.060089 
	C95.065376,143.633804 95.120117,156.302475 95.100586,169.436386 
	C95.011650,213.796768 94.977783,257.691895 94.993073,301.587036 
	C94.998230,316.377838 95.128204,331.168610 95.201141,345.959381 
	C95.162903,346.125366 95.124664,346.291382 95.015396,346.702545 
	C94.629585,345.798126 94.039955,344.648682 94.039307,343.498901 
	C93.997803,269.810455 94.004013,196.121979 94.010277,122.433495 
	C94.010300,122.102661 94.072205,121.771835 94.496780,121.255661 
z"/>
<path fill="#B1A8B5" opacity="1.000000" stroke="none" 
	d="
M138.523834,347.975159 
	C139.574966,347.645142 141.089493,347.065826 142.607758,347.055969 
	C154.747086,346.976990 166.887100,347.005707 179.491608,347.029358 
	C178.498154,347.369324 177.041565,347.943604 175.581650,347.952148 
	C163.384430,348.023560 151.186615,347.990936 138.523834,347.975159 
z"/>
<path fill="#00002C" opacity="1.000000" stroke="none" 
	d="
M178.694794,119.696289 
	C168.867020,119.861046 158.743546,119.732727 148.320938,119.319305 
	C158.147568,119.157219 168.273346,119.280220 178.694794,119.696289 
z"/>
<path fill="#B1A7B4" opacity="1.000000" stroke="none" 
	d="
M106.467163,347.992188 
	C107.998970,347.661377 109.998428,347.068695 112.001747,347.055298 
	C119.802986,347.003113 127.605461,347.134644 135.628510,347.552795 
	C126.211906,347.937286 116.574249,347.966858 106.467163,347.992188 
z"/>
<path fill="#00002D" opacity="1.000000" stroke="none" 
	d="
M206.508942,119.025909 
	C202.436310,119.359169 197.902222,119.784019 193.358353,119.969292 
	C189.557983,120.124252 185.746155,119.999069 181.471207,119.993225 
	C185.208405,119.657143 189.408707,119.196358 193.620621,119.031174 
	C197.755371,118.869019 201.901901,119.007301 206.508942,119.025909 
z"/>
<path fill="#00001D" opacity="1.000000" stroke="none" 
	d="
M95.456024,345.636902 
	C95.128204,331.168610 94.998230,316.377838 94.993073,301.587036 
	C94.977783,257.691895 95.011650,213.796768 95.299896,169.439545 
	C95.573494,168.977432 95.972130,168.979782 95.972130,168.979782 
	C95.987610,226.605453 96.004890,284.231110 96.005714,341.856781 
	C96.005737,343.009308 95.813469,344.161865 95.456024,345.636902 
z"/>
<path fill="#000000" opacity="1.000000" stroke="none" 
	d="
M95.987289,168.513367 
	C95.972130,168.979782 95.573494,168.977432 95.374176,168.974274 
	C95.120117,156.302475 95.065376,143.633804 95.080902,130.504608 
	C95.437927,131.618790 95.963287,133.191986 95.973122,134.768433 
	C96.042358,145.860901 96.005455,156.954025 95.987289,168.513367 
z"/>
<path fill="#000000" opacity="1.000000" stroke="none" 
	d="
M246.941681,220.866791 
	C246.877411,220.864059 246.754822,220.728119 246.632233,220.592194 
	C246.715942,220.639328 246.799652,220.686462 246.941681,220.866791 
z"/>
<path fill="#000000" opacity="1.000000" stroke="none" 
	d="
M509.202545,331.514832 
	C508.648346,333.642365 508.420654,335.482697 507.784393,337.168884 
	C506.459320,340.680511 504.633179,343.593048 500.258759,344.073883 
	C495.969330,344.545349 494.700104,341.918427 493.159332,338.741516 
	C489.674713,331.556610 490.658783,320.813080 496.335632,315.882812 
	C498.621979,313.897186 502.925995,311.739014 504.995392,312.649933 
	C507.419586,313.717041 509.143219,317.884796 509.817047,321.000336 
	C510.509583,324.202271 509.569611,327.757324 509.202545,331.514832 
z"/>
</svg>